<svg width="92" height="92" viewBox="0 0 92 92" fill="none" xmlns="http://www.w3.org/2000/svg">
<g clip-path="url(#clip0_17_418)" filter="url(#filter0_d_17_418)">
<path d="M38.617 22.9947V33.1761L39.3379 33.8969C39.5683 34.1271 45.1039 39.5394 55.8436 39.5394C66.5833 39.5394 72.1189 34.1271 72.3493 33.8968L73.0702 33.1759V22.9945L77.992 21.0258V34.6175H82.9139V19.057L87.0793 17.3909L55.8436 4.89661L24.6079 17.3909L38.617 22.9947ZM68.1483 31.0096C66.5817 32.1795 62.5159 34.6175 55.8436 34.6175C49.1713 34.6175 45.1055 32.1795 43.5389 31.0096V24.9633L55.8436 29.8851L68.1483 24.9633V31.0096ZM73.8267 17.3909L55.8436 24.5841L37.8605 17.3909L55.8436 10.1978L73.8267 17.3909Z" fill="#5B5B5B"/>
<path d="M22.9664 21.4277L19.4862 17.9475L16.3375 21.0961C16.8835 12.0855 24.3857 4.92188 33.5311 4.92188V0C21.6521 0 11.9288 9.40029 11.4061 21.1526L8.2008 17.9475L4.7207 21.4277L13.8436 30.5506L22.9664 21.4277Z" fill="#0056D6"/>
<path d="M87.2791 57.6506L78.1562 48.5277L69.0334 57.6506L72.5136 61.1308L75.6953 57.9492V61.8517C75.6953 71.3505 67.9675 79.0783 58.4688 79.0783V84.0002C70.6814 84.0002 80.6172 74.0644 80.6172 61.8517V57.9492L83.799 61.131L87.2791 57.6506Z" fill="#0056D6"/>
<path d="M63.2264 69.0706V53.5101L67.3918 51.8441L36.1561 39.3497L4.92041 51.8441L18.9295 57.4478V67.6292L19.6504 68.3501C19.8808 68.5803 25.4164 73.9925 36.1561 73.9925C46.8958 73.9925 52.4314 68.5802 52.6618 68.3499L53.3827 67.629V57.4476L58.3045 55.4789V69.0706H63.2264ZM48.4608 65.4627C46.8942 66.6327 42.8284 69.0706 36.1561 69.0706C29.4838 69.0706 25.4181 66.6327 23.8514 65.4627V59.4164L36.1561 64.3383L48.4608 59.4164V65.4627ZM36.1561 59.0372L18.1731 51.8441L36.1561 44.6509L54.1392 51.8441L36.1561 59.0372Z" fill="#5B5B5B"/>
</g>
<defs>
<filter id="filter0_d_17_418" x="0" y="0" width="92" height="92" filterUnits="userSpaceOnUse" color-interpolation-filters="sRGB">
<feFlood flood-opacity="0" result="BackgroundImageFix"/>
<feColorMatrix in="SourceAlpha" type="matrix" values="0 0 0 0 0 0 0 0 0 0 0 0 0 0 0 0 0 0 127 0" result="hardAlpha"/>
<feOffset dy="4"/>
<feGaussianBlur stdDeviation="2"/>
<feComposite in2="hardAlpha" operator="out"/>
<feColorMatrix type="matrix" values="0 0 0 0 0 0 0 0 0 0 0 0 0 0 0 0 0 0 0.25 0"/>
<feBlend mode="normal" in2="BackgroundImageFix" result="effect1_dropShadow_17_418"/>
<feBlend mode="normal" in="SourceGraphic" in2="effect1_dropShadow_17_418" result="shape"/>
</filter>
<clipPath id="clip0_17_418">
<rect width="84" height="84" fill="white" transform="translate(4)"/>
</clipPath>
</defs>
</svg>
